<mxfile host="app.diagrams.net" agent="Mozilla/5.0 (Windows NT 10.0; Win64; x64) AppleWebKit/537.36 (KHTML, like Gecko) Chrome/118.0.0.0 Safari/537.36" version="28.0.7">
  <diagram name="第 1 页" id="0FGeYsX7JHZ0QmF_t-P-">
    <mxGraphModel dx="1121" dy="494" grid="1" gridSize="10" guides="1" tooltips="1" connect="1" arrows="1" fold="1" page="1" pageScale="1" pageWidth="827" pageHeight="1169" math="0" shadow="0">
      <root>
        <mxCell id="0" />
        <mxCell id="1" parent="0" />
        <mxCell id="pm2P6Z4k8RW_78djmnzq-8" style="edgeStyle=orthogonalEdgeStyle;rounded=0;orthogonalLoop=1;jettySize=auto;html=1;entryX=0.5;entryY=1;entryDx=0;entryDy=0;" edge="1" parent="1" source="pm2P6Z4k8RW_78djmnzq-1" target="pm2P6Z4k8RW_78djmnzq-2">
          <mxGeometry relative="1" as="geometry" />
        </mxCell>
        <mxCell id="pm2P6Z4k8RW_78djmnzq-1" value="" style="shape=actor;whiteSpace=wrap;html=1;fillColor=#E6FFCC;" vertex="1" parent="1">
          <mxGeometry x="80" y="300" width="40" height="60" as="geometry" />
        </mxCell>
        <mxCell id="pm2P6Z4k8RW_78djmnzq-9" style="edgeStyle=orthogonalEdgeStyle;rounded=0;orthogonalLoop=1;jettySize=auto;html=1;entryX=0;entryY=0.5;entryDx=0;entryDy=0;" edge="1" parent="1" source="pm2P6Z4k8RW_78djmnzq-2" target="pm2P6Z4k8RW_78djmnzq-3">
          <mxGeometry relative="1" as="geometry" />
        </mxCell>
        <mxCell id="pm2P6Z4k8RW_78djmnzq-2" value="&lt;b&gt;智能客户端/SDK&lt;/b&gt;" style="rounded=1;whiteSpace=wrap;html=1;direction=south;shadow=1;fillColor=#CCFFE6;" vertex="1" parent="1">
          <mxGeometry x="190" y="270" width="60" height="120" as="geometry" />
        </mxCell>
        <mxCell id="pm2P6Z4k8RW_78djmnzq-3" value="&lt;b&gt;配置中心 ZK/Nacos&lt;/b&gt;" style="rhombus;whiteSpace=wrap;html=1;shadow=1;fillColor=#CCFFFF;" vertex="1" parent="1">
          <mxGeometry x="310" y="285" width="90" height="90" as="geometry" />
        </mxCell>
        <mxCell id="pm2P6Z4k8RW_78djmnzq-4" value="&lt;b&gt;机架1&lt;/b&gt;" style="shape=cube;whiteSpace=wrap;html=1;boundedLbl=1;backgroundOutline=1;darkOpacity=0.05;darkOpacity2=0.1;shadow=1;fillColor=#E6E6E6;" vertex="1" parent="1">
          <mxGeometry x="500" y="160" width="120" height="80" as="geometry" />
        </mxCell>
        <mxCell id="pm2P6Z4k8RW_78djmnzq-5" value="&lt;b&gt;机架2&lt;/b&gt;" style="shape=cube;whiteSpace=wrap;html=1;boundedLbl=1;backgroundOutline=1;darkOpacity=0.05;darkOpacity2=0.1;shadow=1;fillColor=#E6E6E6;" vertex="1" parent="1">
          <mxGeometry x="500" y="290" width="120" height="80" as="geometry" />
        </mxCell>
        <mxCell id="pm2P6Z4k8RW_78djmnzq-6" value="&lt;b&gt;机架3&lt;/b&gt;" style="shape=cube;whiteSpace=wrap;html=1;boundedLbl=1;backgroundOutline=1;darkOpacity=0.05;darkOpacity2=0.1;shadow=1;fillColor=#E6E6E6;" vertex="1" parent="1">
          <mxGeometry x="500" y="420" width="120" height="80" as="geometry" />
        </mxCell>
        <mxCell id="pm2P6Z4k8RW_78djmnzq-7" value="&lt;b&gt;客户端应用&lt;/b&gt;" style="text;strokeColor=none;align=center;fillColor=none;html=1;verticalAlign=middle;whiteSpace=wrap;rounded=0;" vertex="1" parent="1">
          <mxGeometry x="66.5" y="370" width="67" height="20" as="geometry" />
        </mxCell>
        <mxCell id="pm2P6Z4k8RW_78djmnzq-10" style="edgeStyle=orthogonalEdgeStyle;rounded=0;orthogonalLoop=1;jettySize=auto;html=1;exitX=1;exitY=0.5;exitDx=0;exitDy=0;entryX=0;entryY=0.503;entryDx=0;entryDy=0;entryPerimeter=0;" edge="1" parent="1" source="pm2P6Z4k8RW_78djmnzq-3" target="pm2P6Z4k8RW_78djmnzq-5">
          <mxGeometry relative="1" as="geometry" />
        </mxCell>
        <mxCell id="pm2P6Z4k8RW_78djmnzq-11" style="edgeStyle=orthogonalEdgeStyle;rounded=0;orthogonalLoop=1;jettySize=auto;html=1;exitX=1;exitY=0.5;exitDx=0;exitDy=0;entryX=0;entryY=0;entryDx=0;entryDy=30;entryPerimeter=0;" edge="1" parent="1" source="pm2P6Z4k8RW_78djmnzq-3" target="pm2P6Z4k8RW_78djmnzq-4">
          <mxGeometry relative="1" as="geometry">
            <Array as="points">
              <mxPoint x="470" y="330" />
              <mxPoint x="470" y="190" />
            </Array>
          </mxGeometry>
        </mxCell>
        <mxCell id="pm2P6Z4k8RW_78djmnzq-12" style="edgeStyle=orthogonalEdgeStyle;rounded=0;orthogonalLoop=1;jettySize=auto;html=1;exitX=1;exitY=0.5;exitDx=0;exitDy=0;entryX=0;entryY=0.5;entryDx=0;entryDy=0;entryPerimeter=0;" edge="1" parent="1" source="pm2P6Z4k8RW_78djmnzq-3" target="pm2P6Z4k8RW_78djmnzq-6">
          <mxGeometry relative="1" as="geometry">
            <Array as="points">
              <mxPoint x="470" y="330" />
              <mxPoint x="470" y="460" />
            </Array>
          </mxGeometry>
        </mxCell>
        <mxCell id="pm2P6Z4k8RW_78djmnzq-13" value="&lt;b&gt;Redis&amp;nbsp;&lt;/b&gt;&lt;div&gt;&lt;b&gt;Cluster&lt;/b&gt;&lt;/div&gt;" style="text;strokeColor=none;align=center;fillColor=none;html=1;verticalAlign=middle;whiteSpace=wrap;rounded=0;" vertex="1" parent="1">
          <mxGeometry x="420" y="300" width="40" height="30" as="geometry" />
        </mxCell>
        <mxCell id="pm2P6Z4k8RW_78djmnzq-15" value="&lt;b&gt;节点A主&lt;br&gt;节点B从&lt;br&gt;哨兵/监控&lt;/b&gt;" style="text;strokeColor=none;align=center;fillColor=none;html=1;verticalAlign=middle;whiteSpace=wrap;rounded=0;" vertex="1" parent="1">
          <mxGeometry x="630" y="177.5" width="60" height="45" as="geometry" />
        </mxCell>
        <mxCell id="pm2P6Z4k8RW_78djmnzq-16" value="&lt;b&gt;节点B主&lt;br&gt;节点C从&lt;br&gt;哨兵/监控&lt;/b&gt;" style="text;strokeColor=none;align=center;fillColor=none;html=1;verticalAlign=middle;whiteSpace=wrap;rounded=0;" vertex="1" parent="1">
          <mxGeometry x="630" y="305" width="60" height="50" as="geometry" />
        </mxCell>
        <mxCell id="pm2P6Z4k8RW_78djmnzq-17" value="&lt;b&gt;节点C主&lt;br&gt;节点A从&lt;br&gt;哨兵/监控&lt;/b&gt;" style="text;strokeColor=none;align=center;fillColor=none;html=1;verticalAlign=middle;whiteSpace=wrap;rounded=0;" vertex="1" parent="1">
          <mxGeometry x="630" y="435" width="60" height="50" as="geometry" />
        </mxCell>
      </root>
    </mxGraphModel>
  </diagram>
</mxfile>
